<?xml version="1.0" standalone="no"?>
<!DOCTYPE svg PUBLIC "-//W3C//DTD SVG 20010904//EN"
 "http://www.w3.org/TR/2001/REC-SVG-20010904/DTD/svg10.dtd">
<svg version="1.0" xmlns="http://www.w3.org/2000/svg"
 width="1300.000000pt" height="160.000000pt" viewBox="0 0 1300.000000 160.000000"
 preserveAspectRatio="xMidYMid meet">

<g transform="translate(0.000000,160.000000) scale(0.100000,-0.100000)"
fill="#ffffff" stroke="none">
<path d="M1675 1585 c-33 -7 -80 -17 -105 -23 -25 -6 -79 -17 -120 -26 -41 -8
-88 -19 -105 -24 -24 -7 -76 -69 -263 -318 -127 -170 -239 -317 -248 -327 -22
-27 -14 -52 17 -52 22 0 58 43 255 305 126 167 234 310 239 317 9 11 64 25
290 73 22 5 49 12 60 16 11 3 -157 -171 -374 -388 -286 -287 -392 -400 -389
-414 10 -53 39 -28 436 367 217 217 391 385 388 374 -4 -11 -11 -38 -16 -60
-48 -226 -62 -281 -73 -290 -7 -5 -150 -113 -317 -239 -262 -197 -305 -233
-305 -255 0 -31 25 -39 52 -17 10 9 157 121 327 248 l309 233 13 50 c12 47 22
91 60 268 8 39 19 88 25 108 5 20 9 48 9 63 0 25 -2 26 -52 25 -29 -1 -80 -7
-113 -14z"/>
<path d="M6835 1474 c-16 -2 -55 -9 -85 -15 -163 -34 -312 -172 -372 -347 -21
-62 -23 -84 -22 -282 0 -325 26 -407 177 -546 112 -104 219 -134 476 -134 277
1 356 11 448 56 139 69 225 175 269 334 27 94 27 455 1 549 -44 157 -132 265
-270 335 -74 38 -81 40 -214 47 -138 8 -351 9 -408 3z m507 -258 c48 -23 113
-88 141 -140 21 -38 22 -55 22 -261 0 -215 -1 -221 -25 -269 -27 -53 -85 -106
-146 -133 -32 -14 -77 -18 -236 -21 -293 -6 -375 14 -445 106 -53 70 -67 134
-67 317 0 120 4 174 17 216 33 110 109 179 218 198 29 6 151 9 269 7 182 -2
221 -5 252 -20z"/>
<path d="M2820 1461 c-393 -6 -406 -7 -450 -28 -59 -29 -124 -94 -151 -149
-34 -71 -41 -167 -37 -533 3 -338 4 -347 26 -393 32 -66 94 -125 160 -156 53
-24 71 -26 257 -33 110 -4 318 -8 463 -8 l262 -1 0 119 0 118 -427 5 c-274 3
-438 9 -455 16 -52 21 -53 30 -53 397 0 365 1 377 51 395 14 6 219 13 455 17
l430 6 -3 116 -3 116 -60 1 c-33 0 -242 -2 -465 -5z"/>
<path d="M3615 1429 l-45 -42 1 -301 c0 -165 4 -389 8 -497 8 -189 9 -198 37
-249 33 -60 90 -114 153 -142 57 -26 255 -37 674 -38 l307 0 0 119 0 118 -432
6 c-238 3 -443 8 -454 12 -43 14 -47 40 -52 438 l-5 377 472 0 472 0 -3 118
-3 117 -543 3 -542 2 -45 -41z"/>
<path d="M4858 1465 c-4 -4 117 -151 268 -327 152 -175 273 -324 271 -331 -3
-7 -43 -55 -89 -107 -142 -160 -438 -512 -438 -520 0 -10 186 -23 255 -18 l49
3 181 212 c99 117 187 220 196 228 15 15 32 -2 208 -209 l192 -226 68 0 c37 0
109 -3 159 -6 66 -5 92 -4 92 4 0 7 -121 152 -270 324 -148 172 -270 316 -270
319 0 3 121 147 269 320 149 173 266 318 261 322 -11 12 -282 21 -295 10 -6
-4 -98 -108 -204 -231 -190 -218 -194 -222 -213 -205 -11 10 -99 111 -196 226
l-176 207 -127 0 c-69 0 -139 3 -155 6 -16 3 -32 2 -36 -1z"/>
<path d="M8174 1461 c-107 -5 -125 -9 -157 -31 l-37 -25 0 -591 0 -590 28 -20
c15 -11 36 -24 47 -28 10 -4 197 -7 414 -6 l396 0 93 46 c120 58 203 138 256
245 48 98 56 149 56 354 0 204 -8 256 -56 353 -70 144 -202 245 -359 276 -80
16 -493 26 -681 17z m660 -255 c72 -22 131 -69 161 -130 54 -110 58 -413 7
-512 -27 -51 -87 -109 -137 -130 -49 -20 -228 -33 -467 -34 l-178 0 0 417 0
416 285 -7 c187 -5 301 -12 329 -20z"/>
<path d="M10295 1460 c-256 -6 -320 -10 -365 -24 -219 -70 -401 -262 -429
-451 -5 -33 -11 -231 -13 -440 l-3 -380 110 0 110 0 3 163 2 162 410 0 410 0
0 -165 0 -165 120 0 120 0 0 612 0 612 -42 43 c-37 38 -47 43 -83 41 -22 -1
-179 -5 -350 -8z m235 -480 l0 -250 -410 0 -410 0 0 68 c1 134 42 234 132 317
96 89 130 98 408 105 129 3 245 7 258 8 l22 2 0 -250z"/>
<path d="M11315 1461 c-110 -4 -208 -10 -217 -15 -9 -4 -25 -26 -35 -49 -16
-39 -18 -90 -21 -640 l-3 -598 118 3 118 3 3 530 2 530 402 -3 c221 -2 405 -5
407 -8 3 -3 6 -60 6 -127 0 -95 -4 -129 -17 -152 -21 -38 -56 -71 -90 -84 -14
-5 -157 -13 -318 -17 l-291 -7 3 -116 3 -116 68 -3 c95 -4 71 13 448 -314
l137 -118 113 0 c138 0 219 9 218 24 0 6 -103 99 -229 208 l-229 196 67 12
c141 24 263 114 318 234 40 87 55 270 33 392 -22 119 -95 201 -199 223 -59 12
-562 19 -815 12z"/>
<path d="M582 928 c-53 -57 -66 -127 -34 -186 9 -17 39 -54 66 -82 l49 -51
-122 -121 -122 -121 -22 22 c-35 32 -58 26 -110 -27 -72 -73 -70 -80 78 -227
147 -148 155 -151 228 -77 52 53 57 75 26 109 l-22 22 121 122 121 122 48 -46
c58 -56 78 -71 120 -85 42 -14 92 1 140 43 30 26 34 34 25 50 -15 28 -546 555
-558 555 -6 0 -20 -10 -32 -22z m492 -556 c-40 -21 -71 -7 -149 69 -39 38 -78
69 -86 69 -7 0 -75 -61 -150 -136 l-137 -137 -23 22 c-42 39 -84 18 -59 -28 6
-12 31 -40 56 -63 l45 -41 -27 -28 -27 -29 -108 108 -108 107 27 28 26 27 23
-25 c13 -14 31 -25 41 -25 9 0 78 61 153 136 l137 137 28 -27 c32 -29 51 -30
68 -4 9 14 -8 36 -102 132 -116 119 -128 141 -100 186 12 19 31 2 255 -222
l243 -243 -26 -13z"/>
<path d="M3900 815 l0 -115 370 0 370 0 0 115 0 115 -370 0 -370 0 0 -115z"/>
</g>
</svg>
